<svg width="8" height="8" viewBox="0 0 8 8" fill="none" xmlns="http://www.w3.org/2000/svg">
<g clip-path="url(#clip0_3_53)">
<path d="M3.08336 7.33333L2.95002 6.26667C2.8778 6.23889 2.80975 6.20555 2.74586 6.16667C2.68197 6.12778 2.61947 6.08611 2.55836 6.04167L1.56669 6.45833L0.650024 4.875L1.50836 4.225C1.5028 4.18611 1.50002 4.14861 1.50002 4.1125V3.8875C1.50002 3.85139 1.5028 3.81389 1.50836 3.775L0.650024 3.125L1.56669 1.54167L2.55836 1.95833C2.61947 1.91389 2.68336 1.87222 2.75002 1.83333C2.81669 1.79444 2.88336 1.76111 2.95002 1.73333L3.08336 0.666666H4.91669L5.05002 1.73333C5.12225 1.76111 5.1903 1.79444 5.25419 1.83333C5.31808 1.87222 5.38058 1.91389 5.44169 1.95833L6.43336 1.54167L7.35002 3.125L6.49169 3.775C6.49725 3.81389 6.50002 3.85139 6.50002 3.8875V4.1125C6.50002 4.14861 6.49447 4.18611 6.48336 4.225L7.34169 4.875L6.42502 6.45833L5.44169 6.04167C5.38058 6.08611 5.31669 6.12778 5.25002 6.16667C5.18336 6.20555 5.11669 6.23889 5.05002 6.26667L4.91669 7.33333H3.08336ZM4.01669 5.16667C4.33891 5.16667 4.61391 5.05278 4.84169 4.825C5.06947 4.59722 5.18336 4.32222 5.18336 4C5.18336 3.67778 5.06947 3.40278 4.84169 3.175C4.61391 2.94722 4.33891 2.83333 4.01669 2.83333C3.68891 2.83333 3.41252 2.94722 3.18752 3.175C2.96252 3.40278 2.85002 3.67778 2.85002 4C2.85002 4.32222 2.96252 4.59722 3.18752 4.825C3.41252 5.05278 3.68891 5.16667 4.01669 5.16667Z" fill="#79747E"/>
</g>
<defs>
<clipPath id="clip0_3_53">
<rect width="8" height="8" fill="white"/>
</clipPath>
</defs>
</svg>
