<svg width="8" height="8" viewBox="0 0 8 8" fill="none" xmlns="http://www.w3.org/2000/svg">
<path d="M4 7C3.16667 7 2.45833 6.70833 1.875 6.125C1.29167 5.54167 1 4.83333 1 4C1 3.16667 1.29167 2.45833 1.875 1.875C2.45833 1.29167 3.16667 1 4 1C4.07778 1 4.15417 1.00278 4.22917 1.00833C4.30417 1.01389 4.37778 1.02222 4.45 1.03333C4.22222 1.19444 4.04028 1.40417 3.90417 1.6625C3.76806 1.92083 3.7 2.2 3.7 2.5C3.7 3 3.875 3.425 4.225 3.775C4.575 4.125 5 4.3 5.5 4.3C5.80556 4.3 6.08611 4.23194 6.34167 4.09583C6.59722 3.95972 6.80556 3.77778 6.96667 3.55C6.97778 3.62222 6.98611 3.69583 6.99167 3.77083C6.99722 3.84583 7 3.92222 7 4C7 4.83333 6.70833 5.54167 6.125 6.125C5.54167 6.70833 4.83333 7 4 7ZM4 6.33333C4.48889 6.33333 4.92778 6.19861 5.31667 5.92917C5.70556 5.65972 5.98889 5.30833 6.16667 4.875C6.05556 4.90278 5.94444 4.925 5.83333 4.94167C5.72222 4.95833 5.61111 4.96667 5.5 4.96667C4.81667 4.96667 4.23472 4.72639 3.75417 4.24583C3.27361 3.76528 3.03333 3.18333 3.03333 2.5C3.03333 2.38889 3.04167 2.27778 3.05833 2.16667C3.075 2.05556 3.09722 1.94444 3.125 1.83333C2.69167 2.01111 2.34028 2.29444 2.07083 2.68333C1.80139 3.07222 1.66667 3.51111 1.66667 4C1.66667 4.64444 1.89444 5.19444 2.35 5.65C2.80556 6.10556 3.35556 6.33333 4 6.33333Z" fill="black" fill-opacity="0.53"/>
</svg>
